<?xml version="1.0" encoding="UTF-8"?>
<svg width="96" height="96" viewBox="0 0 96 96" xmlns="http://www.w3.org/2000/svg">
  <defs>
    <linearGradient id="grad1" x1="0%" y1="0%" x2="100%" y2="100%">
      <stop offset="0%" style="stop-color:#4f46e5;stop-opacity:1" />
      <stop offset="100%" style="stop-color:#7c3aed;stop-opacity:1" />
    </linearGradient>
  </defs>
  
  <!-- Background -->
  <rect width="96" height="96" rx="19.200000000000003" fill="url(#grad1)"/>
  
  <!-- Trophy Icon -->
  <g transform="translate(19.200000000000003, 19.200000000000003) scale(0.5760000000000001)">
    <path d="M50 10 L70 10 Q80 10 80 20 L80 40 Q80 60 70 70 L60 70 L60 80 L80 80 L80 90 L20 90 L20 80 L40 80 L40 70 L30 70 Q20 60 20 40 L20 20 Q20 10 30 10 L50 10 Z" fill="white"/>
    <circle cx="35" cy="25" r="3" fill="#ffd700"/>
    <circle cx="50" cy="25" r="3" fill="#ffd700"/>
    <circle cx="65" cy="25" r="3" fill="#ffd700"/>
  </g>
  
  <!-- Game Controller -->
  <g transform="translate(14.399999999999999, 52.800000000000004) scale(0.384)">
    <rect x="0" y="0" width="120" height="40" rx="20" fill="white"/>
    <circle cx="25" cy="20" r="8" fill="#4f46e5"/>
    <circle cx="95" cy="20" r="8" fill="#4f46e5"/>
    <rect x="50" y="10" width="20" height="5" fill="#4f46e5"/>
    <rect x="57.5" y="2.5" width="5" height="20" fill="#4f46e5"/>
  </g>
</svg>