<svg xmlns="http://www.w3.org/2000/svg" viewBox="0 0 512 512" width="512" height="512">
  <!-- Fundo gradiente -->
  <defs>
    <linearGradient id="bg" x1="0%" y1="0%" x2="100%" y2="100%">
      <stop offset="0%" style="stop-color:#4f46e5;stop-opacity:1" />
      <stop offset="100%" style="stop-color:#7c3aed;stop-opacity:1" />
    </linearGradient>
  </defs>
  
  <!-- Círculo de fundo -->
  <circle cx="256" cy="256" r="240" fill="url(#bg)" stroke="#fff" stroke-width="8"/>
  
  <!-- Ícone de troféu/conquista -->
  <g transform="translate(256,256)">
    <!-- Base do troféu -->
    <rect x="-40" y="80" width="80" height="20" fill="#ffd700" rx="4"/>
    <rect x="-30" y="100" width="60" height="40" fill="#ffa500" rx="8"/>
    
    <!-- Copa principal -->
    <path d="M -80 -40 Q -80 -100 -40 -100 L 40 -100 Q 80 -100 80 -40 L 80 40 Q 80 80 40 80 L -40 80 Q -80 80 -80 40 Z" 
          fill="#ffd700" stroke="#ffa500" stroke-width="4"/>
    
    <!-- Alças laterais -->
    <ellipse cx="-100" cy="-20" rx="20" ry="30" fill="#ffd700"/>
    <ellipse cx="100" cy="-20" rx="20" ry="30" fill="#ffd700"/>
    
    <!-- Detalhes decorativos -->
    <circle cx="0" cy="-30" r="15" fill="#fff" opacity="0.3"/>
    <rect x="-50" y="-10" width="100" height="3" fill="#ffa500"/>
    <rect x="-50" y="10" width="100" height="3" fill="#ffa500"/>
    
    <!-- Estrela no centro -->
    <path d="M 0 -20 L 4 -8 L 16 -8 L 7 2 L 10 14 L 0 8 L -10 14 L -7 2 L -16 -8 L -4 -8 Z" 
          fill="#fff" opacity="0.8"/>
  </g>
</svg>
